<?xml version="1.0" encoding="UTF-8"?><svg id="Ebene_1" xmlns="http://www.w3.org/2000/svg" viewBox="0 0 160 30"><defs><style>.cls-1{fill:#00a6e2;}.cls-2{fill:#ea690b;}.cls-3{fill:#fff;}.cls-4{fill:#80197f;}.cls-5{fill:#e2006a;}.cls-6{fill:#7ab41d;}</style></defs><path class="cls-4" d="m32.48,4.17h-6.95v6.95h6.95v-6.95Z"/><path class="cls-1" d="m47.56,19.25h-6.95v6.95h6.95v-6.95Z"/><path class="cls-2" d="m32.48,19.25h-6.95v6.95h6.95v-6.95Z"/><path class="cls-5" d="m40.02,11.71h-6.95v6.97h6.95v-6.97Z"/><path class="cls-6" d="m47.56,4.17h-6.95v6.95h6.95v-6.95Z"/><path class="cls-3" d="m11.43,3C4.81,3,0,8.13,0,15.2s4.81,12.2,11.43,12.2,11.43-5.13,11.43-12.2c0-6.97-4.91-12.2-11.43-12.2Zm0,5.38c3.78,0,5.48,3.42,5.48,6.79,0,3.14-1.44,6.79-5.48,6.79s-5.48-3.66-5.48-6.79c0-3.37,1.7-6.79,5.48-6.79Z"/><path class="cls-3" d="m61.97,3c-6.63,0-11.43,5.13-11.43,12.2s4.81,12.2,11.43,12.2,11.43-5.13,11.43-12.2c0-6.97-4.94-12.2-11.43-12.2Zm0,5.38c3.78,0,5.48,3.42,5.48,6.79,0,3.14-1.44,6.79-5.48,6.79s-5.48-3.66-5.48-6.79c0-3.37,1.7-6.79,5.48-6.79Z"/><path class="cls-3" d="m91.57,20.49c-.64.04-1.26.22-1.82.52-1,.52-2.11.79-3.23.8-3.78,0-5.48-3.28-5.48-6.53s1.44-6.72,5.48-6.72c1.08,0,2.15.22,3.14.67.54.26,1.13.41,1.74.44,1.39-.03,2.5-1.19,2.47-2.58,0-.01,0-.02,0-.03,0-3.21-4.8-4.06-7.32-4.06-6.63,0-11.43,5.13-11.43,12.2s4.81,12.2,11.43,12.2c2.84,0,7.65-.89,7.65-4.25-.03-.91-.8-2.67-2.62-2.67Z"/><path class="cls-3" d="m110,5.97c-.66-1.86-2.09-2.97-3.87-2.97-1.68,0-3.2,1.17-3.87,2.96l-6.39,17.3c-.16.39-.25.8-.25,1.22.04,1.54,1.31,2.75,2.85,2.72,1.29.07,2.44-.78,2.76-2.03l.84-2.61h8.11l.85,2.65c.34,1.24,1.51,2.07,2.79,1.99,1.44.04,2.65-1.09,2.69-2.53,0-.03,0-.05,0-.08-.02-.46-.11-.91-.28-1.34l-6.23-17.28Zm-1.57,11.21h-4.67l2.36-7.21,2.31,7.21Z"/><path class="cls-3" d="m130.89,17.39c3.36-.83,5.41-3.19,5.41-6.32,0-5.03-2.91-7.68-8.41-7.68h-5.59c-1.82,0-2.94,1.14-2.94,2.97v17.87c0,1.78,1.16,2.97,2.88,2.97s2.88-1.2,2.88-2.97v-5.59l6.25,7.57c1.05,1.22,2.88,1.35,4.1.3.65-.56,1.02-1.38,1.01-2.24-.02-.66-.3-1.28-.77-1.74l-4.8-5.14Zm-.52-6.32c0,1.46-.92,2.33-2.46,2.33h-2.78v-4.65h2.78c1.54,0,2.44.86,2.44,2.32h.02Z"/><path class="cls-3" d="m148.31,3.39h-5.28c-1.55-.07-2.87,1.13-2.94,2.69,0,.09,0,.17,0,.26v17.81c0,1.98,1.57,2.88,3.01,2.88h5.53c6.79,0,11.37-4.62,11.37-11.5,0-7.48-4.48-12.13-11.69-12.13Zm5.75,11.91c0,3.97-2.05,6.34-5.48,6.34h-2.71v-12.89h2.39c5.03,0,5.79,4.11,5.79,6.55h.02Z"/></svg>