<svg xmlns="http://www.w3.org/2000/svg" width="214" height="33" viewBox="0 0 214 33">
  <g id="Logo" transform="translate(-11.883 -12.013)">
    <path id="Path_534" data-name="Path 534" d="M55.319,13.6h-9.3v9.4h9.3Z" fill="#80197f"/>
    <path id="Path_535" data-name="Path 535" d="M75.492,33.989H66.2v9.4h9.3Z" fill="#00a6e2"/>
    <path id="Path_536" data-name="Path 536" d="M55.319,33.989h-9.3v9.4h9.3Z" fill="#ea690b"/>
    <path id="Path_537" data-name="Path 537" d="M65.406,23.793h-9.3v9.419h9.3Z" fill="#e2006a"/>
    <path id="Path_538" data-name="Path 538" d="M75.492,13.6H66.2v9.4h9.3Z" fill="#7ab41d"/>
    <path id="Path_539" data-name="Path 539" d="M27.177,12.013c-8.856,0-15.294,6.939-15.294,16.493S18.314,45,27.177,45s15.294-6.932,15.294-16.493C42.471,19.079,35.9,12.013,27.177,12.013Zm0,7.278c5.061,0,7.333,4.628,7.333,9.186,0,4.24-1.922,9.186-7.333,9.186s-7.333-4.946-7.333-9.186C19.852,23.92,22.116,19.291,27.177,19.291Z"/>
    <path id="Path_540" data-name="Path 540" d="M94.764,12.013c-8.863,0-15.294,6.932-15.294,16.493S85.9,45,94.764,45s15.294-6.932,15.294-16.493C110.058,19.079,103.453,12.013,94.764,12.013Zm0,7.278c5.061,0,7.333,4.628,7.333,9.186,0,4.24-1.922,9.186-7.333,9.186s-7.333-4.946-7.333-9.186C87.438,23.92,89.7,19.291,94.764,19.291Z"/>
    <path id="Path_541" data-name="Path 541" d="M134.356,35.664a5.911,5.911,0,0,0-2.44.707,9.45,9.45,0,0,1-4.32,1.081c-5.061,0-7.333-4.438-7.333-8.826,0-4.19,1.922-9.087,7.333-9.087a9.9,9.9,0,0,1,4.194.9,6.019,6.019,0,0,0,2.321.6,3.4,3.4,0,0,0,3.3-3.488V17.51c0-4.339-6.417-5.484-9.786-5.484-8.863,0-15.294,6.932-15.294,16.493s6.431,16.493,15.294,16.493c3.8,0,10.233-1.208,10.233-5.745C137.823,38.038,136.781,35.664,134.356,35.664Z"/>
    <path id="Path_542" data-name="Path 542" d="M159.009,16.034a5.457,5.457,0,0,0-5.173-4.014,5.684,5.684,0,0,0-5.173,4.007l-8.549,23.39a4.362,4.362,0,0,0-.336,1.646,3.751,3.751,0,0,0,3.81,3.682,3.626,3.626,0,0,0,3.7-2.742l1.125-3.533h10.849l1.132,3.583a3.652,3.652,0,0,0,3.733,2.692,3.512,3.512,0,0,0,3.6-3.426c0-.035,0-.071,0-.107a5.707,5.707,0,0,0-.377-1.816Zm-2.1,15.157h-6.249l3.16-9.745Z"/>
    <path id="Path_543" data-name="Path 543" d="M186.949,31.467c4.495-1.124,7.235-4.31,7.235-8.543,0-6.8-3.893-10.388-11.254-10.388H175.45a3.689,3.689,0,0,0-3.935,4.021v24.16a3.855,3.855,0,1,0,7.7,0V33.155l8.353,10.232a3.858,3.858,0,0,0,5.482.409,3.948,3.948,0,0,0,1.348-3.031,3.443,3.443,0,0,0-1.028-2.353Zm-.7-8.543a2.96,2.96,0,0,1-3.292,3.152h-3.712V19.786h3.712a2.928,2.928,0,0,1,3.264,3.137Z"/>
    <path id="Path_544" data-name="Path 544" d="M210.253,12.536h-7.06a3.784,3.784,0,0,0-3.935,3.631c0,.115,0,.231,0,.347V40.589a3.805,3.805,0,0,0,4.026,3.894h7.4c9.087,0,15.2-6.247,15.2-15.546C225.883,18.818,219.893,12.536,210.253,12.536Zm7.689,16.1c0,5.37-2.74,8.572-7.333,8.572h-3.628V19.786h3.2c6.731,0,7.738,5.554,7.738,8.854Z"/>
  </g>
</svg>
